<mxfile host="Electron" modified="2024-06-02T07:51:11.068Z" agent="Mozilla/5.0 (Windows NT 10.0; Win64; x64) AppleWebKit/537.36 (KHTML, like Gecko) draw.io/24.4.0 Chrome/120.0.6099.109 Electron/28.1.0 Safari/537.36" etag="zvIdNrHteyim9UWLqayQ" version="24.4.0" type="device">
  <diagram name="Login" id="sHnPzlPfrv65dx8u1Bod">
    <mxGraphModel dx="1084" dy="806" grid="1" gridSize="10" guides="1" tooltips="1" connect="1" arrows="1" fold="1" page="1" pageScale="1" pageWidth="850" pageHeight="1100" math="0" shadow="0">
      <root>
        <mxCell id="0" />
        <mxCell id="1" parent="0" />
        <mxCell id="Osogt7fq2rYPQ872hWoB-5" style="edgeStyle=orthogonalEdgeStyle;rounded=0;orthogonalLoop=1;jettySize=auto;html=1;" edge="1" parent="1" source="Osogt7fq2rYPQ872hWoB-1" target="Osogt7fq2rYPQ872hWoB-3">
          <mxGeometry relative="1" as="geometry" />
        </mxCell>
        <mxCell id="Osogt7fq2rYPQ872hWoB-1" value="client startup" style="rounded=1;whiteSpace=wrap;html=1;arcSize=50;" vertex="1" parent="1">
          <mxGeometry x="200" y="210" width="120" height="50" as="geometry" />
        </mxCell>
        <mxCell id="Osogt7fq2rYPQ872hWoB-7" style="edgeStyle=orthogonalEdgeStyle;rounded=0;orthogonalLoop=1;jettySize=auto;html=1;" edge="1" parent="1" source="Osogt7fq2rYPQ872hWoB-2" target="Osogt7fq2rYPQ872hWoB-6">
          <mxGeometry relative="1" as="geometry" />
        </mxCell>
        <mxCell id="Osogt7fq2rYPQ872hWoB-2" value="server strartup" style="rounded=1;whiteSpace=wrap;html=1;arcSize=50;" vertex="1" parent="1">
          <mxGeometry x="550" y="160" width="120" height="50" as="geometry" />
        </mxCell>
        <mxCell id="Osogt7fq2rYPQ872hWoB-16" style="edgeStyle=orthogonalEdgeStyle;rounded=0;orthogonalLoop=1;jettySize=auto;html=1;" edge="1" parent="1" source="Osogt7fq2rYPQ872hWoB-3" target="Osogt7fq2rYPQ872hWoB-9">
          <mxGeometry relative="1" as="geometry" />
        </mxCell>
        <mxCell id="Osogt7fq2rYPQ872hWoB-3" value="connect ke server" style="rounded=0;whiteSpace=wrap;html=1;" vertex="1" parent="1">
          <mxGeometry x="200" y="290" width="120" height="60" as="geometry" />
        </mxCell>
        <mxCell id="Osogt7fq2rYPQ872hWoB-12" style="edgeStyle=orthogonalEdgeStyle;rounded=0;orthogonalLoop=1;jettySize=auto;html=1;" edge="1" parent="1" source="Osogt7fq2rYPQ872hWoB-6" target="Osogt7fq2rYPQ872hWoB-11">
          <mxGeometry relative="1" as="geometry" />
        </mxCell>
        <mxCell id="Osogt7fq2rYPQ872hWoB-6" value="menunggu koneksi" style="rounded=0;whiteSpace=wrap;html=1;" vertex="1" parent="1">
          <mxGeometry x="550" y="240" width="120" height="60" as="geometry" />
        </mxCell>
        <mxCell id="Osogt7fq2rYPQ872hWoB-18" style="edgeStyle=orthogonalEdgeStyle;rounded=0;orthogonalLoop=1;jettySize=auto;html=1;" edge="1" parent="1" source="Osogt7fq2rYPQ872hWoB-9" target="Osogt7fq2rYPQ872hWoB-17">
          <mxGeometry relative="1" as="geometry">
            <mxPoint x="400" y="460" as="targetPoint" />
            <Array as="points">
              <mxPoint x="365" y="430" />
            </Array>
          </mxGeometry>
        </mxCell>
        <mxCell id="Osogt7fq2rYPQ872hWoB-20" style="edgeStyle=orthogonalEdgeStyle;rounded=0;orthogonalLoop=1;jettySize=auto;html=1;exitX=0;exitY=0.5;exitDx=0;exitDy=0;" edge="1" parent="1" source="Osogt7fq2rYPQ872hWoB-9" target="Osogt7fq2rYPQ872hWoB-19">
          <mxGeometry relative="1" as="geometry" />
        </mxCell>
        <mxCell id="Osogt7fq2rYPQ872hWoB-9" value="Pilih registrasi&lt;div&gt;atau login&lt;/div&gt;" style="rhombus;whiteSpace=wrap;html=1;" vertex="1" parent="1">
          <mxGeometry x="195" y="390" width="130" height="80" as="geometry" />
        </mxCell>
        <mxCell id="Osogt7fq2rYPQ872hWoB-11" value="Beri client prompt registrasi" style="rounded=0;whiteSpace=wrap;html=1;" vertex="1" parent="1">
          <mxGeometry x="550" y="330" width="120" height="60" as="geometry" />
        </mxCell>
        <mxCell id="Osogt7fq2rYPQ872hWoB-23" style="edgeStyle=orthogonalEdgeStyle;rounded=0;orthogonalLoop=1;jettySize=auto;html=1;entryX=0.5;entryY=0;entryDx=0;entryDy=0;exitX=0.5;exitY=1;exitDx=0;exitDy=0;" edge="1" parent="1" source="Osogt7fq2rYPQ872hWoB-17" target="Osogt7fq2rYPQ872hWoB-21">
          <mxGeometry relative="1" as="geometry" />
        </mxCell>
        <mxCell id="Osogt7fq2rYPQ872hWoB-17" value="Request registrasi" style="rounded=0;whiteSpace=wrap;html=1;" vertex="1" parent="1">
          <mxGeometry x="305" y="470" width="120" height="60" as="geometry" />
        </mxCell>
        <mxCell id="Osogt7fq2rYPQ872hWoB-22" style="edgeStyle=orthogonalEdgeStyle;rounded=0;orthogonalLoop=1;jettySize=auto;html=1;entryX=0.5;entryY=0;entryDx=0;entryDy=0;exitX=0.5;exitY=1;exitDx=0;exitDy=0;" edge="1" parent="1" source="Osogt7fq2rYPQ872hWoB-19" target="Osogt7fq2rYPQ872hWoB-21">
          <mxGeometry relative="1" as="geometry" />
        </mxCell>
        <mxCell id="Osogt7fq2rYPQ872hWoB-19" value="Request login" style="rounded=0;whiteSpace=wrap;html=1;" vertex="1" parent="1">
          <mxGeometry x="80" y="500" width="120" height="60" as="geometry" />
        </mxCell>
        <mxCell id="Osogt7fq2rYPQ872hWoB-26" style="edgeStyle=orthogonalEdgeStyle;rounded=0;orthogonalLoop=1;jettySize=auto;html=1;entryX=0.5;entryY=0;entryDx=0;entryDy=0;" edge="1" parent="1" source="Osogt7fq2rYPQ872hWoB-21" target="Osogt7fq2rYPQ872hWoB-27">
          <mxGeometry relative="1" as="geometry">
            <mxPoint x="260" y="690" as="targetPoint" />
          </mxGeometry>
        </mxCell>
        <mxCell id="Osogt7fq2rYPQ872hWoB-21" value="" style="ellipse;whiteSpace=wrap;html=1;aspect=fixed;" vertex="1" parent="1">
          <mxGeometry x="245" y="630" width="30" height="30" as="geometry" />
        </mxCell>
        <mxCell id="Osogt7fq2rYPQ872hWoB-29" style="edgeStyle=orthogonalEdgeStyle;rounded=0;orthogonalLoop=1;jettySize=auto;html=1;" edge="1" parent="1" source="Osogt7fq2rYPQ872hWoB-27" target="Osogt7fq2rYPQ872hWoB-28">
          <mxGeometry relative="1" as="geometry" />
        </mxCell>
        <mxCell id="Osogt7fq2rYPQ872hWoB-27" value="GUI Main Menu" style="shape=parallelogram;perimeter=parallelogramPerimeter;whiteSpace=wrap;html=1;fixedSize=1;" vertex="1" parent="1">
          <mxGeometry x="200" y="700" width="120" height="60" as="geometry" />
        </mxCell>
        <mxCell id="Osogt7fq2rYPQ872hWoB-28" value="Apa yang dipilih" style="rhombus;whiteSpace=wrap;html=1;" vertex="1" parent="1">
          <mxGeometry x="180" y="790" width="160" height="80" as="geometry" />
        </mxCell>
      </root>
    </mxGraphModel>
  </diagram>
</mxfile>
